<svg width="124" height="36" viewBox="0 0 124 36" fill="none" xmlns="http://www.w3.org/2000/svg">
<path d="M47.1437 8.71167C49.8031 9.12673 52.2014 9.75899 52.2014 12.1915C52.2014 14.624 49.542 15.541 46.9552 15.541C45.2483 15.541 43.087 14.9425 42.2891 13.6491C42.211 13.5025 42.172 13.3383 42.1759 13.1724C42.1799 13.0064 42.2267 12.8443 42.3117 12.7016C42.3968 12.559 42.5173 12.4406 42.6616 12.358C42.8058 12.2754 42.969 12.2314 43.1353 12.2301H44.7455C44.7455 14.1172 45.9833 14.735 46.9745 14.735C47.9657 14.735 49.2809 14.1172 49.2809 12.2301C49.2809 11.4241 48.1736 11.1442 46.7859 10.9366C44.1072 10.5264 41.9507 9.72521 41.9507 7.55816C41.9507 5.27528 44.8518 4.37757 46.8971 4.30518C48.4154 4.30518 50.833 4.93743 51.5825 6.60254C51.6312 6.74641 51.6452 6.89973 51.6234 7.05003C51.6016 7.20033 51.5445 7.34337 51.4569 7.46752C51.3693 7.59168 51.2535 7.69344 51.1191 7.76453C50.9846 7.83563 50.8353 7.87406 50.6831 7.8767H48.9811C48.9811 5.74344 47.6659 5.10636 46.9358 5.10636C46.0945 5.10636 44.8567 5.74344 44.8567 7.51955C44.8567 8.30625 46.1138 8.58618 47.1244 8.7358L47.1437 8.71167Z" fill="white"/>
<path d="M61.5432 15.2611C62.0656 14.4155 62.3138 13.4294 62.254 12.4377V9.77837C62.254 6.99354 61.9542 5.1016 60.1555 5.1016C57.8684 5.1016 57.1576 6.99354 57.1576 9.77837V12.4377C57.135 13.2379 57.2816 14.0339 57.588 14.7737V14.8123C57.6748 14.9809 57.7751 15.1423 57.8877 15.2949L57.9264 15.3287H53.4248L53.5022 15.237C54.0246 14.3913 54.2728 13.4053 54.2129 12.4136V3.40271C54.2129 1.36115 53.4248 0.50688 53.4248 0.50688H54.7593C55.0744 0.504964 55.3867 0.565415 55.6783 0.684738C55.9698 0.804061 56.2347 0.979888 56.4577 1.20205C56.6808 1.42422 56.8574 1.68831 56.9776 1.97906C57.0977 2.2698 57.1589 2.58144 57.1576 2.89594V5.96552C57.8104 5.0292 58.5792 4.30042 60.1361 4.30042C63.9415 4.30042 65.16 6.82462 65.16 9.92798V12.4377C65.1373 13.2379 65.284 14.0339 65.5903 14.7737V14.8123C65.6771 14.9809 65.7774 15.1423 65.8901 15.2949L65.9239 15.3335H61.4271L61.5045 15.237L61.5432 15.2611Z" fill="white"/>
<path d="M78.8823 12.6595C78.8507 13.5956 79.1275 14.5163 79.6704 15.2803H77.6638C76.8756 15.2803 75.9763 14.6432 75.9763 13.8565C75.3042 14.7928 74.5257 15.5216 72.9784 15.5216C69.1779 15.5216 67.0601 12.9974 67.0601 9.88919C67.0601 6.78099 69.1779 4.26162 72.9784 4.26162C73.6224 4.25708 74.2627 4.35818 74.8738 4.56086C75.6408 4.88438 76.467 5.04461 77.2996 5.03131C78.1322 5.01802 78.9528 4.83148 79.7091 4.48363C79.1448 5.3408 78.8687 6.35512 78.9209 7.37947L78.8823 12.6595ZM72.9591 14.6625C75.2461 14.6625 75.9569 11.6701 75.9569 9.86988C75.9569 7.10436 75.2461 5.06763 72.9591 5.06763C71.1604 5.06763 69.9612 7.10436 69.9612 9.89401C69.9612 12.6837 71.1604 14.7204 72.9591 14.7204V14.6625Z" fill="white"/>
<path d="M92.8705 12.3797C92.8705 14.4164 93.6586 15.2755 93.6586 15.2755H92.59C92.0595 15.279 91.5394 15.1285 91.093 14.8423C90.6466 14.5561 90.2932 14.1466 90.0757 13.6635C89.6247 14.2483 89.0422 14.719 88.3753 15.0376C87.7083 15.3562 86.9757 15.5138 86.2365 15.4975C82.9582 15.4975 81.0435 12.9733 81.0435 9.86516C81.0435 6.75697 82.731 4.24242 86.2559 4.24242C86.9594 4.22541 87.6579 4.36618 88.2997 4.65435C88.9416 4.94253 89.5105 5.37077 89.9645 5.90752V3.3785C89.9645 1.33694 89.1764 0.482666 89.1764 0.482666H90.2256C91.5408 0.482666 92.8705 1.5493 92.8705 2.85725V12.3797ZM86.9473 14.6626C89.215 14.6626 89.9452 11.6702 89.9452 9.86998C89.9452 7.10447 89.2344 5.06773 86.9473 5.06773C85.1486 5.06773 83.9688 7.10447 83.9688 9.89412C83.9688 12.6838 85.1486 14.7205 86.9473 14.7205V14.6626Z" fill="white"/>
<path d="M106.859 4.46924C105.903 5.42454 105.128 6.54461 104.572 7.77531L100.22 17.4667C100.018 18.0265 99.6496 18.5114 99.164 18.8564C98.6783 19.2014 98.0987 19.3901 97.5026 19.3972C96.8115 19.3843 96.1444 19.1414 95.6072 18.7071C95.1794 18.2792 94.932 17.7041 94.9158 17.0999C94.9132 16.9385 94.9428 16.7783 95.0029 16.6285C95.063 16.4787 95.1523 16.3424 95.2657 16.2274C95.3791 16.1124 95.5143 16.0211 95.6634 15.9587C95.8126 15.8964 95.9726 15.8643 96.1343 15.8643H97.8217C97.0336 16.6317 96.9417 18.5575 97.6332 18.5575C98.7743 18.5575 99.5238 16.8344 99.5238 16.8344C99.9009 16.0139 99.6205 14.7977 99.2433 13.9724L96.5549 7.96354C95.969 6.67564 95.1715 5.49459 94.1953 4.46924H98.9725C98.9338 4.69077 98.9144 4.91523 98.9145 5.14011C98.9105 5.80618 99.0525 6.46507 99.3303 7.07066L101.632 12.2349L104.05 6.82934C104.385 6.09734 104.483 5.27891 104.33 4.48854L106.859 4.46924Z" fill="white"/>
<path d="M48.6038 20.4204C51.3212 20.4204 51.9208 21.8249 51.9208 23.7313C51.922 23.8872 51.8925 24.0419 51.8339 24.1864C51.7753 24.3309 51.6888 24.4625 51.5792 24.5737C51.4697 24.6848 51.3393 24.7734 51.1954 24.8342C51.0516 24.895 50.8972 24.927 50.741 24.9283H49.0196C49.0196 24.9283 50.4412 21.2602 48.6425 21.2602C46.3554 21.2602 45.664 22.6647 45.664 25.435V28.577C45.6408 29.3772 45.7874 30.1733 46.0943 30.913V30.9516C46.1799 31.1209 46.2802 31.2824 46.3941 31.4342L46.4279 31.4728H41.9312L42.0085 31.3763C42.2164 31.0964 42.7193 30.218 42.7193 28.5529V23.5576C42.7298 22.8185 42.6036 22.0839 42.347 21.3905C42.2513 21.1378 42.1246 20.8979 41.9698 20.6762C43.5838 21.3607 45.4031 21.3815 47.0323 20.7341C47.5439 20.5288 48.0912 20.4271 48.6425 20.4349L48.6038 20.4204Z" fill="white"/>
<path d="M61.0545 31.4391C61.5769 30.5934 61.8251 29.6074 61.7652 28.6156V25.9563C61.7652 23.1715 61.4655 21.2795 59.6667 21.2795C57.3797 21.2795 56.6689 23.1715 56.6689 25.9563V28.6156C56.6463 29.4158 56.7929 30.2118 57.0992 30.9516V30.9902C57.1861 31.1588 57.2863 31.3202 57.399 31.4729L57.4377 31.5066H52.9409L53.0134 31.4149C53.2214 31.135 53.7242 30.2566 53.7242 28.5915V19.5806C53.7242 17.5391 52.9409 16.6848 52.9409 16.6848H54.2706C54.9012 16.6861 55.5055 16.9367 55.9514 17.3817C56.3972 17.8268 56.6483 18.43 56.6496 19.0594V22.129C57.3071 21.1927 58.0711 20.4639 59.6281 20.4639C63.4334 20.4639 64.6519 22.9881 64.6519 26.0963V28.6012C64.6293 29.4013 64.7759 30.1973 65.0822 30.9371V30.9757C65.1691 31.1444 65.2693 31.3058 65.382 31.4584L65.4207 31.497H60.9191L60.9964 31.4005L61.0545 31.4391Z" fill="white"/>
<path d="M77.422 20.6473C76.4648 21.6035 75.6899 22.7254 75.1349 23.9582L70.7832 33.6448C70.5842 34.2065 70.2165 34.6934 69.7302 35.0388C69.2439 35.3843 68.6626 35.5717 68.0658 35.5754C67.3746 35.5624 66.7075 35.3195 66.1703 34.8852C65.7417 34.4579 65.4941 33.8825 65.4789 33.278C65.4763 33.1167 65.5059 32.9564 65.566 32.8066C65.6261 32.6568 65.7155 32.5205 65.8289 32.4055C65.9423 32.2905 66.0775 32.1992 66.2266 32.1368C66.3757 32.0745 66.5357 32.0424 66.6974 32.0424H68.3849C67.5967 32.8098 67.5049 34.7356 68.1963 34.7356C69.3374 34.7356 70.0869 33.0174 70.0869 33.0174C70.464 32.1921 70.1836 30.9758 69.8064 30.1553L67.1325 24.132C66.5466 22.8441 65.7491 21.663 64.7729 20.6377H69.5502C69.5117 20.8593 69.4923 21.0837 69.4922 21.3086C69.4875 21.9747 69.6295 22.6337 69.908 23.2391L72.2096 28.4033L74.6272 22.9978C74.9629 22.2658 75.0609 21.4474 74.9076 20.657L77.422 20.6473Z" fill="white"/>
<path d="M92.7934 31.4778C93.3184 30.6313 93.5684 29.6434 93.509 28.6495V25.5269C93.509 22.7613 93.0254 21.3569 91.8408 21.3569C89.9067 21.3569 89.1766 22.6455 89.1234 25.2662V28.6447C89.1004 29.4465 89.247 30.2441 89.5537 30.9855V31.0241C89.6386 31.1938 89.739 31.3554 89.8535 31.5067L89.8874 31.5454H85.4341L85.5115 31.4537C86.0339 30.608 86.2821 29.622 86.2223 28.6302V25.4738C86.2223 22.7034 85.7145 21.2989 84.5541 21.2989C82.5668 21.2989 81.8173 22.7034 81.8173 25.4738V28.6157C81.7976 29.4157 81.9441 30.2111 82.2477 30.9517V30.9903C82.3365 31.1578 82.4366 31.3191 82.5475 31.473L82.5861 31.5067H78.0894L78.1619 31.415C78.3698 31.1351 78.8775 30.2567 78.8775 28.5916V23.5963C78.8868 22.8569 78.7589 22.1222 78.5004 21.4293C78.4044 21.1776 78.2794 20.9379 78.128 20.7149C78.8805 21.0536 79.6949 21.2336 80.5203 21.2436C81.3456 21.2535 82.1642 21.0933 82.9246 20.7729C83.5271 20.569 84.1597 20.4678 84.7958 20.4736C85.4888 20.4467 86.1744 20.6235 86.7676 20.9822C87.3607 21.3408 87.8352 21.8655 88.1322 22.4911C88.5231 21.8758 89.0628 21.3685 89.7016 21.016C90.3403 20.6634 91.0577 20.4769 91.7876 20.4736C95.0659 20.4736 96.4536 22.9978 96.4536 26.106V28.6109C96.431 29.4111 96.5777 30.2071 96.884 30.9469V30.9855C96.9708 31.1541 97.0711 31.3155 97.1838 31.4681L97.2225 31.5067H92.7257L92.7982 31.4102L92.7934 31.4778Z" fill="white"/>
<path d="M105.379 30.6909C108.227 30.6909 110.176 28.0171 110.176 28.0171C109.407 30.0152 107.14 31.6997 104.374 31.6997C100.66 31.6997 98.3394 29.1368 98.3394 26.0335C98.3394 22.9301 100.66 20.4397 104.374 20.4397C107.314 20.4397 109.62 21.9938 110.273 24.5373C110.34 24.7855 110.349 25.0459 110.298 25.298C110.248 25.5501 110.139 25.787 109.981 25.9901C109.823 26.1932 109.62 26.3569 109.388 26.4683C109.156 26.5796 108.901 26.6357 108.643 26.6319H101.424C101.855 28.6494 103.092 30.6909 105.399 30.6909H105.379ZM103.373 21.376C101.439 21.8973 101.124 23.9774 101.255 25.7922H106.801C106.896 25.7858 106.989 25.76 107.073 25.7162C107.158 25.6724 107.232 25.6117 107.292 25.5379C107.352 25.464 107.396 25.3786 107.421 25.287C107.447 25.1954 107.453 25.0995 107.439 25.0055C107.101 22.8722 105.587 20.7775 103.392 21.376H103.373Z" fill="white"/>
<path d="M116.863 24.8896C119.527 25.3046 121.925 25.9369 121.925 28.3694C121.925 30.8019 119.261 31.7189 116.674 31.7189C114.972 31.7189 112.806 31.1204 112.008 29.8318C111.923 29.6844 111.878 29.5172 111.879 29.347C111.879 29.1768 111.924 29.0097 112.01 28.8627C112.096 28.7157 112.22 28.594 112.368 28.5099C112.516 28.4258 112.684 28.3823 112.854 28.3839H114.445C114.445 30.271 115.683 30.8888 116.674 30.8888C117.666 30.8888 118.981 30.271 118.981 28.3839C118.981 27.5779 117.873 27.2979 116.491 27.0952C113.807 26.6802 111.655 25.879 111.655 23.6878C111.655 21.4097 114.556 20.5072 116.602 20.4348C118.12 20.4348 120.538 21.0719 121.287 22.737C121.335 22.8806 121.348 23.0334 121.326 23.1831C121.304 23.3327 121.246 23.4751 121.159 23.5986C121.071 23.7221 120.956 23.8234 120.822 23.8942C120.688 23.9651 120.539 24.0035 120.388 24.0063H118.681C118.681 21.8731 117.371 21.236 116.636 21.236C115.794 21.236 114.556 21.8731 114.556 23.6492C114.556 24.4359 115.814 24.7158 116.824 24.8654L116.863 24.8896Z" fill="white"/>
<path d="M13.8334 20.323L8.5653 25.5246L9.57651 26.515L14.8772 21.2812C15.3707 21.5987 15.9264 21.81 16.5082 21.9012V31.8857H17.9271V21.9012C18.5314 21.7989 19.1068 21.5711 19.6152 21.2329L24.8262 26.3781L25.8374 25.3877L20.6346 20.2505C21.027 19.7244 21.2895 19.115 21.4011 18.471H31.2604V17.07H21.3767C21.2843 16.4956 21.0703 15.9468 20.7487 15.4596L25.6417 10.6283L24.6386 9.63795L19.7457 14.4692C19.1981 14.0508 18.5534 13.774 17.8701 13.664V4.11426H16.4837V13.6398C15.8315 13.7501 15.2143 14.0093 14.6815 14.3967L9.71515 9.49301L8.70394 10.4754L13.6866 15.3951C13.3406 15.8954 13.1096 16.4642 13.0097 17.0619H3.12598V18.463H13.0097C13.1223 19.1413 13.4055 19.7808 13.8334 20.323ZM17.1932 14.9764C17.7518 14.9812 18.2965 15.1491 18.7586 15.459C19.2207 15.7689 19.5796 16.2069 19.79 16.7179C20.0005 17.2288 20.053 17.7898 19.9411 18.3302C19.8292 18.8706 19.5578 19.3662 19.161 19.7546C18.7643 20.1429 18.2601 20.4066 17.7119 20.5125C17.1636 20.6184 16.5959 20.5616 16.0803 20.3495C15.5646 20.1373 15.1241 19.7792 14.8142 19.3202C14.5044 18.8613 14.339 18.3221 14.339 17.7705C14.339 17.4015 14.413 17.0362 14.5567 16.6956C14.7004 16.3551 14.9111 16.046 15.1764 15.7862C15.4418 15.5264 15.7566 15.3211 16.1028 15.1821C16.4489 15.0432 16.8195 14.9732 17.1932 14.9764Z" fill="#FADCD9" stroke="#FADCD9" stroke-miterlimit="10"/>
</svg>
